<svg xmlns="http://www.w3.org/2000/svg" viewBox="0 0 32 32">
  <rect width="32" height="32" rx="6" fill="#be185d"/>
  <!-- Face -->
  <circle cx="15" cy="17" r="8.5" fill="#fce0c8"/>
  <path d="M15,25.5 Q8,25.5 7,17" fill="#fce0c8"/>
  <!-- Ears -->
  <circle cx="7" cy="17.5" r="1.8" fill="#fce0c8"/>
  <circle cx="23" cy="17.5" r="1.8" fill="#fce0c8"/>
  <!-- Hair -->
  <path d="M6.5,16 Q6.5,7 15,7 Q23.5,7 23.5,16" fill="#f0c040"/>
  <path d="M6.5,16 Q8,12 11,13 Q12,9 15,9 Q18,9 19,13 Q22,12 23.5,16" fill="#e8b030"/>
  <!-- Ponytail -->
  <path d="M22,11 Q26,9 26,14 Q26,18 23,19" fill="#f0c040"/>
  <!-- Hair tie -->
  <circle cx="22.5" cy="11" r="1.2" fill="#be185d" stroke="white" stroke-width="0.3"/>
  <!-- Eyes -->
  <circle cx="12.5" cy="16.5" r="1.3" fill="#44403c"/>
  <circle cx="17.5" cy="16.5" r="1.3" fill="#44403c"/>
  <!-- Eye shine -->
  <circle cx="13" cy="16" r="0.4" fill="white"/>
  <circle cx="18" cy="16" r="0.4" fill="white"/>
  <!-- Smile -->
  <path d="M11.5,20 Q15,23.5 18.5,20" fill="white" stroke="#c0544e" stroke-width="0.6"/>
  <!-- Cheeks -->
  <circle cx="9.5" cy="19.5" r="1.6" fill="#f0a0a0" opacity="0.4"/>
  <circle cx="20.5" cy="19.5" r="1.6" fill="#f0a0a0" opacity="0.4"/>
  <!-- Outline -->
  <path d="M6.5,17 Q6.5,25.5 15,25.5 Q23.5,25.5 23.5,17" fill="none" stroke="#5c3a3a" stroke-width="0.8" opacity="0.15"/>
</svg>
